# xmcd
#
# Track frame offsets:
#	150
#	10898
#	24753
#	40477
#	54530
#	67549
#	80846
#	95979
#	108054
#	118271
#	132303
#	147732
#	166060
#	182517
#	199784
#	217808
#	232572
#	247201
#	257693
#	272211
#
# Disc length: 3857 seconds
#
# Revision: 2
# Processed by: cddbd v1.5.2PL0 Copyright (c) Steve Scherf et al.
# Submitted via: audiograbber 1.83.01
#
DISCID=160f0f14
DTITLE=Various Artist - 40 Kölsche Klassiker-Saturn Köln CD2
DYEAR=2010
DGENRE=Karneval
TTITLE0=Höhner - Echte Fründe
TTITLE1=Flamingos - Op dem Maat
TTITLE2=Bläck Fööss - Lange Samstag  en d'r City
TTITLE3=King Size Dick - Kölle am Rhing
TTITLE4=Fritz Weber - Nüngzehnhundert Johr..
TTITLE5=Lotti Krekel and W.Millowitsch - Ne Besuch em Zoo
TTITLE6=Die vier Botze - En d'r Kaygaß Nummere Null
TTITLE7=Karl Berbuer - Du kannst nicht ahnen
TTITLE8=Kapelle Hardy van den.. - Rote Funken Marsch
TTITLE9=Horst Muys - Heidewitzka Herr Kapitän..
TTITLE10=Fritz Weber - Der schmucke Prinz
TTITLE11=Höhner - Hey Kölle Du...
TTITLE12=Paveier - Ich han de Musik bestellt
TTITLE13=Bläck Fööss - Ming eetste Fründin
TTITLE14=Höhner - Ich ben ne Räuber
TTITLE15=Hans Knipp - Mir schenke dr Ahl...
TTITLE16=Bläck Fööss - En unserem Veedel
TTITLE17=Kurt Adolf Thelen - Am Aschermittwoch ist..
TTITLE18=Bläck Fööss - Heimweh nach Köln
TTITLE19=Willy Millowitsch - Kölsche Jung
EXTD=
EXTT0=
EXTT1=
EXTT2=
EXTT3=
EXTT4=
EXTT5=
EXTT6=
EXTT7=
EXTT8=
EXTT9=
EXTT10=
EXTT11=
EXTT12=
EXTT13=
EXTT14=
EXTT15=
EXTT16=
EXTT17=
EXTT18=
EXTT19=
PLAYORDER=
